<svg id="Layer_1" data-name="Layer 1" xmlns="http://www.w3.org/2000/svg" viewBox="0 0 208.53 100.22"><defs><style>.cls-1{fill:#231f20;}</style></defs><path class="cls-1" d="M34.68,8.22q6,0,10.41,7.85l-.22.33h-.22a11.59,11.59,0,0,0-10-4.91q-9.19,0-15.74,13.75a16.36,16.36,0,0,0-1.1,5.89q0,7.44,12,15.05Q49.53,60.58,49.52,73v2Q49.52,85,38,95.6q-7.7,4.58-10.63,4.58H24.71q-10.2-.9-12.63-9.17l-.23-2.61q0-12.29,16.18-17.68l4.65-.32q6,0,8.42,2.62h-.22l-2.66-1H36.67q-11,0-20.16,9.49a15.4,15.4,0,0,0-2.44,6.88q0,6.3,10.19,8.5h1.55q7.26,0,15.07-8.18,6-7.93,6-11.45l-.23-.33v-.32c.45,0,.67-.55.67-1.64V74q0-12.6-22.16-27.16-7.65-5.56-9.31-13.09l-.22-2V29.16q0-6.54,7.09-14.72Q27.65,8.22,34.68,8.22ZM41.33,73h.44l.44.65h-.44ZM44,74.65h.45l.44.66h-.44Z" transform="translate(-11.85 -8.22)"/><path class="cls-1" d="M59.44,56.65h1.11a3,3,0,0,1,2.22,3.28v1q0,5.88-7.32,10.8L54.12,72H52.57c0,1.53.67,2.29,2,2.29H55.9c2.17,0,6.46-1.19,12.85-3.6q-6.87,7.22-13.3,7.2c-3.4,0-5.09-1.52-5.09-4.58V72q0-5.15,5.76-13.41C57.45,57.31,58.55,56.65,59.44,56.65ZM53.9,68.76q3.89-1.31,6.65-7.2v-1l-.44-.65q-3.44,0-6.43,8.83Z" transform="translate(-11.85 -8.22)"/><path class="cls-1" d="M76.39,54.93c1.92,0,2.85.93,2.77,2.79s-1.14,2-3.21.49q-5.86,2.86-5.87,7.93l-.22,9v.33l.44,1v2.62l-.89,1.31q-2,0-2-6.87l.44-7a.58.58,0,0,1-.66-.65v-.66A65.33,65.33,0,0,0,69,54.69l.22-.33h.44c.45,0,.67,1.53.67,4.58Q73.41,54.94,76.39,54.93Z" transform="translate(-11.85 -8.22)"/><path class="cls-1" d="M90.85,51.17c.7,0,1.22,1.2,1.55,3.6a39.3,39.3,0,0,1-2,10.15v1.31l.66,23.56,8-3v.66q-7.1,2.53-8,3.6l.67,16.69-.67.65h-.66a41.86,41.86,0,0,0-20.17-6.22q-5.53-1.31-5.54-2.94V98q0-1.47,9.53-2l14.41-5.56v-1l-.45-20H88c-2,2.83-3.62,4.25-4.87,4.25h-.45a4.24,4.24,0,0,1-3.1-4.25V66.88q1.73-9.82,5.76-9.82h.22a3.39,3.39,0,0,1,2.66,1.64h.22q.39-7.53,2.22-7.53ZM73.79,99v.33q14,2.53,14,4.25l1.55.66v-.33l-.44-11.78h-.22A120.06,120.06,0,0,1,73.79,99Zm8-30.43a2,2,0,0,0,1.11,2Q85,70.48,88,63V62.3c0-.71-.88-1.36-2.66-2Q81.77,62.79,81.77,68.52Z" transform="translate(-11.85 -8.22)"/><path class="cls-1" d="M96.17,55.67h.22L97.28,57v.33l-.89,13.74.45,7.2-.67.33q-2-1-2-5.56v-3Q94.84,55.67,96.17,55.67Zm1-12.84h.44c.89,0,1.7,1,2.44,2.94v1.64a4.44,4.44,0,0,1-1.55,3.27h-.67a2.67,2.67,0,0,1-2.21-3v-1.3A5.1,5.1,0,0,1,97.17,42.83Z" transform="translate(-11.85 -8.22)"/><path class="cls-1" d="M106.47,57.23c1.63.16,2.44,1.14,2.44,2.94l-.89,1-.22-.32h-.22v.32c1.33,2.35,2,4.09,2,5.24v2.29q-2.34,8.83-7.76,8.84h-1.33a4.37,4.37,0,0,1-3.1-4.59V72q0-6.14,6.87-13.74ZM104,62.46l-2,3.27v2.62h-.44V66.72c-.56,0-1.22,1.85-2,5.56,0,1.31.52,2,1.56,2H102q5.33-2.61,5.32-6.54v-.33Q106.42,62.46,104,62.46Z" transform="translate(-11.85 -8.22)"/><path class="cls-1" d="M124,15.58a57.64,57.64,0,0,1,27.92,7.2Q159,27.85,159,34.56v.66q0,10.71-22.16,22.91l.44,30.43-.66.65H136q-1.22,0-1.55-8.83-3.33-16.77-4.21-19.31a29.57,29.57,0,0,1-12.85,3.27H115.8q-9.87,0-11.75-3.92h.22c1.26,1.52,4.36,2.29,9.31,2.29q10.41-2.3,15.73-4.91-2.76-10.39-14.4-26.18-7.75-9.24-7.76-11.13v-1q0-3.36,16.18-3.93Zm-14.19,4.91Q121.49,35,127.32,46l4.43,10.8,2.66-1q-.89-16.61-2.88-24.54L130,26.71l.22-.33h.22q3,4.83,5.54,20l.67,8.51q20.16-11.7,20.16-20.61,0-7.62-17.28-13.09a56.15,56.15,0,0,0-14.85-2Q114.46,19.18,109.81,20.49Zm22.83,39.6,1.77,8.83h.22V60.09l-.44-.66Z" transform="translate(-11.85 -8.22)"/><path class="cls-1" d="M150.2,56.65h1.11a3,3,0,0,1,2.21,3.28v1q0,5.88-7.31,10.8l-1.33.32h-1.55c0,1.53.66,2.29,2,2.29h1.33c2.18,0,6.47-1.19,12.86-3.6q-6.87,7.22-13.3,7.2c-3.4,0-5.1-1.52-5.1-4.58V72q0-5.15,5.77-13.41C148.2,57.31,149.31,56.65,150.2,56.65Zm-5.54,12.11q3.87-1.31,6.65-7.2v-1l-.45-.65q-3.44,0-6.42,8.83Z" transform="translate(-11.85 -8.22)"/><path class="cls-1" d="M166.13,54.93c1.92,0,2.84.93,2.77,2.79s-1.15,2-3.21.49q-5.88,2.86-5.88,7.93l-.22,9v.33l.45,1v2.62l-.89,1.31q-2,0-2-6.87l.44-7a.59.59,0,0,1-.67-.65v-.66a66.33,66.33,0,0,0,1.78-10.47l.22-.33h.44c.44,0,.67,1.53.67,4.58C162.1,56.27,164.14,54.93,166.13,54.93Z" transform="translate(-11.85 -8.22)"/><path class="cls-1" d="M175.47,56.65h1.11a3,3,0,0,1,2.21,3.28v1q0,5.88-7.31,10.8l-1.33.32H168.6c0,1.53.66,2.29,2,2.29h1.33c2.18,0,6.46-1.19,12.85-3.6q-6.87,7.22-13.29,7.2c-3.4,0-5.1-1.52-5.1-4.58V72q0-5.15,5.76-13.41C173.47,57.31,174.58,56.65,175.47,56.65Zm-5.54,12.11q3.87-1.31,6.65-7.2v-1l-.45-.65q-3.44,0-6.42,8.83Z" transform="translate(-11.85 -8.22)"/><path class="cls-1" d="M184.36,55.67h.22l.89,1.31v.33l-.89,13.74.45,7.2-.67.33q-2-1-2-5.56v-3Q183,55.67,184.36,55.67Zm1-12.84h.44c.89,0,1.7,1,2.44,2.94v1.64a4.44,4.44,0,0,1-1.55,3.27H186a2.67,2.67,0,0,1-2.22-3v-1.3A5.14,5.14,0,0,1,185.36,42.83Z" transform="translate(-11.85 -8.22)"/><path class="cls-1" d="M196.86,54.93c1.92,0,2.84.93,2.77,2.79s-1.15,2-3.21.49q-5.88,2.86-5.88,7.93l-.22,9v.33l.45,1v2.62l-.89,1.31q-2,0-2-6.87l.45-7a.58.58,0,0,1-.67-.65v-.66a66.33,66.33,0,0,0,1.78-10.47l.22-.33h.44c.44,0,.67,1.53.67,4.58C192.83,56.27,194.87,54.93,196.86,54.93Z" transform="translate(-11.85 -8.22)"/><path class="cls-1" d="M208.41,58.21h.67c.29,0,.59.65.88,2a15.82,15.82,0,0,0-.44,4.25v.66q0,6.54,5.54,6.54h1.33a9.62,9.62,0,0,0,3.77-1.3h.22q-3.93,4.25-7.31,4.25h-.67c-2.1,0-3.65-1.74-4.65-5.24q-3.27,6.89-6,6.88h-1.11q-2.44-.66-2.44-3.6v-2q1.22-8.84,6-8.83l.22-.33,2.66,1v-.33C207.08,60.28,207.53,59,208.41,58.21Zm-8,13.41V72l.66,1h.22c1.89,0,3.58-2.72,5.1-8.18h-.22q-4.48,0-5.54,4.91Z" transform="translate(-11.85 -8.22)"/></svg>